<svg width="106" height="34" viewBox="0 0 106 34" fill="none" xmlns="http://www.w3.org/2000/svg">
<path fill-rule="evenodd" clip-rule="evenodd" d="M0 10.419C0 6.13954 5.35289 5.19684 7.80629 8.70326C10.2648 12.2169 11.7134 16.4917 11.7301 21.1045C11.7301 16.5322 13.1371 12.2892 15.5409 8.78611C17.8898 5.36305 23.0647 6.26758 23.0647 10.419V15.9107C23.0647 22.2798 17.9015 27.443 11.5324 27.443C5.16321 27.443 0 22.2798 0 15.9106V10.419Z" fill="white"/>
<path d="M46.7013 11.712V7.4H34.8013V27H39.2813V19.804H46.5613V15.492H39.2813V11.712H46.7013ZM51.3082 11.768C52.6802 11.768 53.8282 10.62 53.8282 9.248C53.8282 7.876 52.6802 6.728 51.3082 6.728C49.9362 6.728 48.7882 7.876 48.7882 9.248C48.7882 10.62 49.9362 11.768 51.3082 11.768ZM49.2082 27H53.4082V13H49.2082V27ZM64.6857 17.032V13H61.8017V9.08L57.6017 10.34V13H55.3617V17.032H57.6017V21.988C57.6017 25.908 59.1977 27.56 64.6857 27V23.192C62.8377 23.304 61.8017 23.192 61.8017 21.988V17.032H64.6857ZM87.0771 7.4H82.5971L77.2771 16.108L71.9571 7.4H67.4771V27H71.9571V15.604L77.0251 23.92H77.5291L82.5971 15.604V27H87.0771V7.4ZM94.0579 21.68H103.998C104.11 21.148 104.166 20.588 104.166 20C104.166 15.772 101.142 12.608 97.0539 12.608C92.6299 12.608 89.6059 15.828 89.6059 20C89.6059 24.172 92.5739 27.392 97.3619 27.392C100.022 27.392 102.094 26.412 103.466 24.508L100.106 22.576C99.5459 23.192 98.5659 23.64 97.4179 23.64C95.8779 23.64 94.5899 23.136 94.0579 21.68ZM93.9739 18.544C94.3659 17.116 95.4299 16.332 97.0259 16.332C98.2859 16.332 99.5459 16.92 99.9939 18.544H93.9739Z" fill="white"/>
</svg>
