<svg width="18" height="18" viewBox="0 0 18 18" fill="none" xmlns="http://www.w3.org/2000/svg">
<path d="M9 17C10.0508 17.0014 11.0915 16.795 12.0622 16.3929C13.033 15.9908 13.9148 15.4008 14.6568 14.6568C15.4008 13.9148 15.9908 13.033 16.3929 12.0622C16.795 11.0915 17.0014 10.0508 17 9C17.0013 7.94923 16.795 6.90855 16.3929 5.93777C15.9908 4.96699 15.4008 4.08525 14.6568 3.3432C13.9148 2.59922 13.033 2.00921 12.0622 1.60708C11.0915 1.20496 10.0508 0.998645 9 1.00001C7.94923 0.998667 6.90855 1.20499 5.93777 1.60711C4.96699 2.00923 4.08525 2.59923 3.3432 3.3432C2.59923 4.08525 2.00923 4.96699 1.60711 5.93777C1.20499 6.90855 0.998667 7.94923 1.00001 9C0.998645 10.0508 1.20496 11.0915 1.60708 12.0622C2.00921 13.033 2.59922 13.9148 3.3432 14.6568C4.08525 15.4008 4.96699 15.9908 5.93777 16.3929C6.90855 16.795 7.94923 17.0013 9 17V17Z" stroke="#808080" stroke-width="1.5" stroke-linejoin="round"/>
<path fill-rule="evenodd" clip-rule="evenodd" d="M9 14.1999C9.26522 14.1999 9.51957 14.0946 9.70711 13.9071C9.89464 13.7195 10 13.4652 10 13.2C10 12.9347 9.89464 12.6804 9.70711 12.4928C9.51957 12.3053 9.26522 12.2 9 12.2C8.73478 12.2 8.48043 12.3053 8.29289 12.4928C8.10536 12.6804 8 12.9347 8 13.2C8 13.4652 8.10536 13.7195 8.29289 13.9071C8.48043 14.0946 8.73478 14.1999 9 14.1999Z" fill="#808080"/>
<path d="M9 4.19995V10.5999" stroke="#808080" stroke-width="1.5" stroke-linecap="round" stroke-linejoin="round"/>
</svg>
