<svg width="22" height="20" viewBox="0 0 22 20" fill="none" xmlns="http://www.w3.org/2000/svg">
<path opacity="0.75" d="M4.55122 19.8492L4.84504 19.4446C4.80119 19.4128 4.76713 19.3693 4.74674 19.3191C4.72635 19.2688 4.72044 19.2139 4.72968 19.1605L4.7298 19.1598L5.803 12.9061L5.84746 12.647L5.65924 12.4635L1.11669 8.03472L1.11666 8.03468C1.06114 7.98056 1.02937 7.90661 1.02835 7.82908C1.02732 7.75185 1.05689 7.67735 1.11057 7.62185C1.1562 7.57557 1.21414 7.54639 1.27605 7.53755L1.27725 7.53737L7.55571 6.62491L7.8159 6.58709L7.93221 6.35129L10.7376 0.663776C10.7378 0.663467 10.738 0.66316 10.7381 0.662852C10.8115 0.517413 10.9878 0.459775 11.1299 0.529955L11.1305 0.530241C11.1873 0.558171 11.2333 0.604162 11.2612 0.660924L11.2614 0.661356L14.0681 6.35129L14.1844 6.58709L14.4446 6.62491L20.7214 7.53714C20.7217 7.53717 20.7219 7.53721 20.7221 7.53724C20.8861 7.56197 20.992 7.71124 20.9684 7.86396L20.9684 7.86395L20.9676 7.86949C20.9588 7.93149 20.9295 7.98953 20.8831 8.03519C20.8829 8.03533 20.8828 8.03547 20.8827 8.03562L16.341 12.4635L16.1528 12.647L16.1973 12.9061L17.2705 19.1598L17.2705 19.1602C17.2976 19.3171 17.1923 19.4675 17.0329 19.495L17.0322 19.4951C16.9688 19.5061 16.9038 19.4955 16.8508 19.4672L16.8486 19.466L11.2328 16.5135L11.0001 16.3912L10.7675 16.5135L5.1517 19.466L5.15093 19.4664C5.103 19.4917 5.04893 19.5031 4.99487 19.4993C4.9408 19.4954 4.8889 19.4765 4.84505 19.4446L4.55122 19.8492Z" stroke="#404040"/>
</svg>
