<svg width="22" height="22" viewBox="0 0 22 22" fill="none" xmlns="http://www.w3.org/2000/svg">
<path d="M21.0834 2.75922C21.0834 2.75922 19.2336 3.85188 18.2051 4.16172C17.653 3.52694 16.9193 3.07702 16.1032 2.87282C15.2871 2.66861 14.428 2.71998 13.642 3.01997C12.856 3.31995 12.1812 3.85409 11.7086 4.55012C11.2361 5.24616 10.9888 6.07053 11.0001 6.91172V7.82838C9.38916 7.87016 7.79292 7.51288 6.35351 6.78838C4.9141 6.06387 3.67621 4.99463 2.75008 3.67588C2.75008 3.67588 -0.916585 11.9259 7.33341 15.5926C5.44556 16.874 3.19664 17.5166 0.916748 17.4259C9.16675 22.0092 19.2501 17.4259 19.2501 6.88422C19.2501 6.62938 19.2244 6.37455 19.1767 6.12338C20.1117 5.20122 21.0834 2.75922 21.0834 2.75922Z" stroke="white" stroke-width="1.6" stroke-linecap="round" stroke-linejoin="round"/>
</svg>
